<svg width="52" height="52" viewBox="0 0 52 52" fill="none" xmlns="http://www.w3.org/2000/svg">
<path d="M39.4781 40.0912L39.4784 40.0915C39.6316 40.2455 39.8452 40.3334 40.0625 40.3334C40.2798 40.3334 40.4934 40.2455 40.6466 40.0915L40.6469 40.0912C40.8004 39.9377 40.8891 39.7238 40.8891 39.5068C40.8891 39.2899 40.8004 39.0761 40.6469 38.9225C40.6469 38.9225 40.6468 38.9225 40.6468 38.9224M39.4781 40.0912L39.3721 40.1973C39.1904 40.0156 39.0859 39.7637 39.0859 39.5068C39.0859 39.25 39.1904 38.998 39.3721 38.8164C39.5537 38.6348 39.8057 38.5303 40.0625 38.5303C40.3193 38.5303 40.5713 38.6348 40.7529 38.8164L40.6468 38.9224M39.4781 40.0912C39.3246 39.9377 39.2359 39.7238 39.2359 39.5068C39.2359 39.2898 39.3246 39.076 39.4781 38.9225C39.6317 38.7689 39.8455 38.6803 40.0625 38.6803C40.2795 38.6803 40.4933 38.7689 40.6468 38.9224M39.4781 40.0912L40.6468 38.9224" stroke="black" stroke-width="0.3"/>
<path d="M36.1238 39.4847H31.5665V44.3718C34.5233 44.5573 36.8725 47.0205 36.8725 50.0233C36.8725 50.9999 36.8725 50.9999 35.8959 50.9999H16.1042C15.1276 50.9999 15.1276 50.9999 15.1276 50.0233C15.1276 47.0869 17.3738 44.6658 20.2383 44.3867V39.4847H4.90625C1 39.4847 1 39.4847 1 35.5784V4.90625C1 1 1 1 4.90625 1H47.0938C51 1 51 1 51 4.90625V35.5784C51 39.4847 51 39.4847 47.0938 39.4847H43.4479" stroke="black" stroke-width="0.5"/>
<path d="M25.3925 36.9666L25.3922 36.9663C25.2386 36.8127 25.15 36.5999 25.15 36.382C25.15 36.165 25.2386 35.9511 25.3922 35.7976C25.5457 35.644 25.7596 35.5554 25.9766 35.5554C26.1936 35.5554 26.4074 35.644 26.5609 35.7976C26.7145 35.9511 26.8031 36.165 26.8031 36.382C26.8031 36.5999 26.7145 36.8127 26.5609 36.9663L26.5606 36.9666C26.4075 37.1206 26.1939 37.2085 25.9766 37.2085C25.7592 37.2085 25.5457 37.1206 25.3925 36.9666Z" stroke="black" stroke-width="0.3"/>
<path d="M18.6807 12.735L12.8456 18.2102C12.4642 18.5916 12.4642 19.2099 12.8456 19.5914L18.6807 25.0666" stroke="#949494" stroke-width="0.5"/>
<path d="M33.3193 12.735L39.1536 18.2102C39.535 18.5917 39.535 19.2099 39.1536 19.5914L33.3193 25.0666" stroke="#949494" stroke-width="0.5"/>
<path d="M28 12.999L24 24.999" stroke="#949494" stroke-width="0.5"/>
<path d="M30.5898 4.91345H46.1172C47.0938 4.91345 47.0938 4.91345 47.0938 5.89002V32.2572C47.0938 33.2338 47.0938 33.2338 46.1172 33.2338H5.88281C4.90625 33.2338 4.90625 33.2338 4.90625 32.2572V5.89002C4.90625 4.91345 5 4.99902 5.88281 4.91345H21.8496" stroke="black" stroke-width="0.5"/>
<path d="M26.1953 3.06321C26.4123 3.06321 26.6261 3.15186 26.7797 3.30541C26.9332 3.45896 27.0219 3.67277 27.0219 3.88977C27.0219 4.10753 26.9334 4.32052 26.7795 4.47526C26.6263 4.62845 26.4126 4.71633 26.1953 4.71633C25.978 4.71633 25.7644 4.62844 25.6111 4.47525C25.4573 4.32056 25.3688 4.10663 25.3688 3.88977C25.3688 3.67277 25.4574 3.45896 25.6109 3.30541C25.7645 3.15186 25.9783 3.06321 26.1953 3.06321Z" stroke="black" stroke-width="0.3"/>
</svg>
