<svg width="30" height="30" viewBox="0 0 30 30" fill="none" xmlns="http://www.w3.org/2000/svg">
<path d="M22.808 19.8452C21.8279 18.8776 20.6043 18.8776 19.6305 19.8452C18.8876 20.5819 18.1447 21.3185 17.4143 22.0676C17.2146 22.2736 17.046 22.3173 16.8025 22.18C16.3218 21.9178 15.8099 21.7056 15.348 21.4184C13.1942 20.0637 11.3901 18.322 9.79196 16.3618C8.99913 15.3879 8.29371 14.3454 7.80053 13.1718C7.70065 12.9346 7.71938 12.7785 7.9129 12.585C8.65578 11.867 9.37994 11.1304 10.1103 10.3938C11.1279 9.36996 11.1279 8.17136 10.1041 7.14131C9.52352 6.5545 8.94295 5.98017 8.36238 5.39336C7.76308 4.79406 7.17002 4.18851 6.56447 3.59546C5.58437 2.64032 4.3608 2.64032 3.38693 3.6017C2.63781 4.33834 1.91989 5.09371 1.15828 5.81786C0.452855 6.48583 0.0970199 7.30363 0.0221072 8.25876C-0.0965044 9.8132 0.284301 11.2802 0.821175 12.7098C1.91989 15.6689 3.59294 18.297 5.62182 20.7067C8.36238 23.9654 11.6336 26.5437 15.4603 28.404C17.1833 29.2405 18.9688 29.8835 20.9102 29.9896C22.2462 30.0645 23.4073 29.7274 24.3375 28.6849C24.9742 27.9732 25.6922 27.324 26.3664 26.6435C27.3652 25.6322 27.3714 24.4087 26.3789 23.4098C25.1927 22.2175 24.0004 21.0313 22.808 19.8452Z" fill="black"/>
<path d="M21.6156 14.8703L23.9192 14.477C23.5571 12.3607 22.5583 10.4442 21.0413 8.921C19.4369 7.31662 17.408 6.3053 15.1731 5.99316L14.8485 8.30921C16.5777 8.55268 18.1509 9.33302 19.3932 10.5753C20.5668 11.7489 21.3347 13.2347 21.6156 14.8703Z" fill="black"/>
<path d="M25.2177 4.85683C22.5583 2.19744 19.1935 0.518146 15.479 0L15.1544 2.31605C18.3632 2.76552 21.2723 4.22008 23.5696 6.51115C25.7483 8.68986 27.1779 11.4429 27.696 14.4706L29.9996 14.0773C29.3941 10.5689 27.7397 7.38513 25.2177 4.85683Z" fill="black"/>
</svg>
