<svg width="52" height="52" viewBox="0 0 52 52" fill="none" xmlns="http://www.w3.org/2000/svg">
<g filter="url(#filter0_i)">
<path d="M50.9612 13.5C50.9612 15.5 50.9612 16 48.4636 16H45.966V18.5H49.4626C50.9612 18.5 50.9612 19 50.9612 21L50.9612 32C50.9612 33.3807 50.9612 33.5 48.4636 33.5H45.966V36H49.4612C50.8406 36 50.9612 36 50.9612 38.5V48.5C50.9612 51 50.9612 51 48.4636 51H3.50684C1.00924 51 1.00924 51 1.00924 48.5V38.5C1.00924 36 1.00924 36 3.50684 36H6.00444V33.5H3.50684C1.00924 33.5 0.961183 33.5 1.00924 31V19.7018C0.96118 18.5 1.00925 18.5 3.50684 18.5H6.00444V16H4.50587C0.961209 16 1.00922 16 1.00922 13L1.00924 3.5C1.00924 1 1.00923 1 2.00827 1H48.4636C50.9612 1 50.9612 1 50.9612 3.5L50.9612 13.5Z" stroke="black" stroke-width="0.5"/>
</g>
<path d="M39.2946 4.33331H37.6279V5.99998H39.2946V4.33331Z" fill="#D5D8DA"/>
<path d="M42.6278 4.33331H40.9612V5.99998H42.6278V4.33331Z" fill="#D5D8DA"/>
<path d="M45.9611 4.33331H44.2944V5.99998H45.9611V4.33331Z" fill="#D5D8DA"/>
<path d="M35.9611 4.33331H34.2944V5.99998H35.9611V4.33331Z" fill="#D5D8DA"/>
<path d="M32.6278 4.33331H30.9612V5.99998H32.6278V4.33331Z" fill="#D5D8DA"/>
<path d="M39.2946 7.66669H37.6279V9.33335H39.2946V7.66669Z" fill="#D5D8DA"/>
<path d="M42.6278 7.66669H40.9612V9.33335H42.6278V7.66669Z" fill="#D5D8DA"/>
<path d="M45.9611 7.66669H44.2944V9.33335H45.9611V7.66669Z" fill="#D5D8DA"/>
<path d="M35.9611 7.66669H34.2944V9.33335H35.9611V7.66669Z" fill="#D5D8DA"/>
<path d="M32.6278 7.66669H30.9612V9.33335H32.6278V7.66669Z" fill="#D5D8DA"/>
<path d="M39.2946 11H37.6279V12.6667H39.2946V11Z" fill="#D5D8DA"/>
<path d="M42.6278 11H40.9612V12.6667H42.6278V11Z" fill="#D5D8DA"/>
<path d="M45.9611 11H44.2944V12.6667H45.9611V11Z" fill="#D5D8DA"/>
<path d="M35.9611 11H34.2944V12.6667H35.9611V11Z" fill="#D5D8DA"/>
<path d="M32.6278 11H30.9612V12.6667H32.6278V11Z" fill="#D5D8DA"/>
<path d="M39.2946 21.8333H37.6279V23.5H39.2946V21.8333Z" fill="#D5D8DA"/>
<path d="M42.6278 21.8333H40.9612V23.5H42.6278V21.8333Z" fill="#D5D8DA"/>
<path d="M45.9611 21.8333H44.2944V23.5H45.9611V21.8333Z" fill="#D5D8DA"/>
<path d="M35.9611 21.8333H34.2944V23.5H35.9611V21.8333Z" fill="#D5D8DA"/>
<path d="M32.6278 21.8333H30.9612V23.5H32.6278V21.8333Z" fill="#D5D8DA"/>
<path d="M39.2946 25.1667H37.6279V26.8334H39.2946V25.1667Z" fill="#D5D8DA"/>
<path d="M42.6278 25.1667H40.9612V26.8334H42.6278V25.1667Z" fill="#D5D8DA"/>
<path d="M45.9611 25.1667H44.2944V26.8334H45.9611V25.1667Z" fill="#D5D8DA"/>
<path d="M35.9611 25.1667H34.2944V26.8334H35.9611V25.1667Z" fill="#D5D8DA"/>
<path d="M32.6278 25.1667H30.9612V26.8334H32.6278V25.1667Z" fill="#D5D8DA"/>
<path d="M39.2946 28.5H37.6279V30.1667H39.2946V28.5Z" fill="#D5D8DA"/>
<path d="M42.6278 28.5H40.9612V30.1667H42.6278V28.5Z" fill="#D5D8DA"/>
<path d="M45.9611 28.5H44.2944V30.1667H45.9611V28.5Z" fill="#D5D8DA"/>
<path d="M35.9611 28.5H34.2944V30.1667H35.9611V28.5Z" fill="#D5D8DA"/>
<path d="M32.6278 28.5H30.9612V30.1667H32.6278V28.5Z" fill="#D5D8DA"/>
<path d="M39.2946 39.3333H37.6279V41H39.2946V39.3333Z" fill="#D5D8DA"/>
<path d="M42.6278 39.3333H40.9612V41H42.6278V39.3333Z" fill="#D5D8DA"/>
<path d="M45.9611 39.3333H44.2944V41H45.9611V39.3333Z" fill="#D5D8DA"/>
<path d="M35.9611 39.3333H34.2944V41H35.9611V39.3333Z" fill="#D5D8DA"/>
<path d="M32.6278 39.3333H30.9612V41H32.6278V39.3333Z" fill="#D5D8DA"/>
<path d="M39.2946 42.6667H37.6279V44.3334H39.2946V42.6667Z" fill="#D5D8DA"/>
<path d="M42.6278 42.6667H40.9612V44.3334H42.6278V42.6667Z" fill="#D5D8DA"/>
<path d="M45.9611 42.6667H44.2944V44.3334H45.9611V42.6667Z" fill="#D5D8DA"/>
<path d="M35.9611 42.6667H34.2944V44.3334H35.9611V42.6667Z" fill="#D5D8DA"/>
<path d="M32.6278 42.6667H30.9612V44.3334H32.6278V42.6667Z" fill="#D5D8DA"/>
<path d="M39.2946 46H37.6279V47.6667H39.2946V46Z" fill="#D5D8DA"/>
<path d="M42.6278 46H40.9612V47.6667H42.6278V46Z" fill="#D5D8DA"/>
<path d="M45.9611 46H44.2944V47.6667H45.9611V46Z" fill="#D5D8DA"/>
<path d="M35.9611 46H34.2944V47.6667H35.9611V46Z" fill="#D5D8DA"/>
<path d="M32.6278 46H30.9612V47.6667H32.6278V46Z" fill="#D5D8DA"/>
<circle cx="8.46118" cy="8.5" r="2.25" stroke="black" stroke-width="0.5"/>
<path d="M10.8713 8.5H27.9611" stroke="black" stroke-width="0.5"/>
<circle cx="8.46118" cy="25.5" r="2.25" stroke="black" stroke-width="0.5"/>
<path d="M10.8713 25.5H27.9611" stroke="black" stroke-width="0.5"/>
<circle cx="8.46118" cy="43.5" r="2.25" stroke="black" stroke-width="0.5"/>
<path d="M10.8713 43.5H27.9611" stroke="black" stroke-width="0.5"/>
<defs>
<filter id="filter0_i" x="0.75" y="0.75" width="50.4612" height="54.5" filterUnits="userSpaceOnUse" color-interpolation-filters="sRGB">
<feFlood flood-opacity="0" result="BackgroundImageFix"/>
<feBlend mode="normal" in="SourceGraphic" in2="BackgroundImageFix" result="shape"/>
<feColorMatrix in="SourceAlpha" type="matrix" values="0 0 0 0 0 0 0 0 0 0 0 0 0 0 0 0 0 0 127 0" result="hardAlpha"/>
<feOffset dy="4"/>
<feGaussianBlur stdDeviation="2"/>
<feComposite in2="hardAlpha" operator="arithmetic" k2="-1" k3="1"/>
<feColorMatrix type="matrix" values="0 0 0 0 0 0 0 0 0 0 0 0 0 0 0 0 0 0 0.25 0"/>
<feBlend mode="normal" in2="shape" result="effect1_innerShadow"/>
</filter>
</defs>
</svg>
