<svg width="50" height="50" viewBox="0 0 50 50" fill="none" xmlns="http://www.w3.org/2000/svg">
<path d="M18.5742 33.591C18.5742 33.0993 18.9942 32.8022 19.732 32.8022C20.5926 32.8022 20.8283 33.1913 21.1457 33.1913C21.5146 33.1913 21.6786 32.7201 21.6786 32.4844C21.6786 31.808 20.3362 31.6646 19.732 31.6646C18.5536 31.6646 17.2421 32.1872 17.2421 33.7139C17.2421 36.1423 20.5311 35.6708 20.5311 37.2077C20.5311 37.8227 19.9982 38.0992 19.3837 38.0992C18.3385 38.0992 18.0619 37.3104 17.6419 37.3104C17.3241 37.3104 17.0579 37.7407 17.0579 38.0275C17.0579 38.6219 18.0825 39.2978 19.4245 39.2978C20.8386 39.2978 21.8632 38.5398 21.8632 37.0746C21.8632 34.4211 18.5742 34.8613 18.5742 33.591Z" fill="#C4C4C4"/>
<path d="M24.5781 33.591C24.5781 33.0993 24.9981 32.8022 25.7359 32.8022C26.5965 32.8022 26.8322 33.1913 27.1496 33.1913C27.5185 33.1913 27.6825 32.7201 27.6825 32.4844C27.6825 31.808 26.3401 31.6646 25.7359 31.6646C24.5575 31.6646 23.246 32.1872 23.246 33.7139C23.246 36.1423 26.535 35.6708 26.535 37.2077C26.535 37.8227 26.0021 38.0992 25.3876 38.0992C24.3424 38.0992 24.0658 37.3104 23.6458 37.3104C23.328 37.3104 23.0618 37.7407 23.0618 38.0275C23.0618 38.6219 24.0864 39.2978 25.4284 39.2978C26.8425 39.2978 27.8671 38.5398 27.8671 37.0746C27.8671 34.4211 24.5781 34.8613 24.5781 33.591Z" fill="#C4C4C4"/>
<path d="M33.2664 38.0378H30.7663V32.1258C30.7663 31.8389 30.4283 31.7161 30.1003 31.7161C29.7623 31.7161 29.4342 31.8389 29.4342 32.1258V38.7855C29.4342 39.0624 29.7211 39.2058 30.0182 39.2058H33.2664C33.5327 39.2058 33.6658 38.9087 33.6658 38.6218C33.6658 38.3246 33.5327 38.0378 33.2664 38.0378Z" fill="#C4C4C4"/>
<path d="M40.1895 21.817V22.067H40.4395H41.4283C42.0229 22.067 42.4477 22.0673 42.7616 22.1022C43.0774 22.1373 43.2262 22.2028 43.3113 22.288C43.3965 22.3731 43.462 22.5218 43.4971 22.8375C43.532 23.1514 43.5324 23.5761 43.5324 24.1706V47.6462C43.5324 48.2408 43.532 48.6655 43.4971 48.9793C43.462 49.2951 43.3965 49.4438 43.3113 49.5289C43.2262 49.6141 43.0774 49.6796 42.7616 49.7147C42.4477 49.7495 42.0229 49.7499 41.4283 49.7499H8.60405C8.00943 49.7499 7.58466 49.7495 7.27072 49.7147C6.95493 49.6796 6.80619 49.6141 6.72102 49.5289C6.63586 49.4438 6.57034 49.2951 6.53525 48.9793C6.50037 48.6655 6.5 48.2408 6.5 47.6462V24.1706C6.5 23.5761 6.50037 23.1514 6.53525 22.8375C6.57034 22.5218 6.63586 22.3731 6.72102 22.288C6.80619 22.2028 6.95493 22.1373 7.27072 22.1022C7.58466 22.0673 8.00943 22.067 8.60405 22.067H9.59243H9.84243V21.817V15.4236C9.84243 7.05716 16.6496 0.25 25.016 0.25C33.3828 0.25 40.1895 7.05715 40.1895 15.4236V21.817Z" stroke="black" stroke-width="0.5"/>
</svg>
