<svg width="25" height="25" viewBox="0 0 25 25" fill="none" xmlns="http://www.w3.org/2000/svg">
<path d="M22.8424 3.54325L22.842 3.54295C22.5988 3.33666 22.1602 3.26725 21.6258 3.48181L21.5781 3.50097C20.4018 3.98882 3.49411 11.241 2.79031 11.544L2.77872 11.549L2.7668 11.5531C2.71644 11.5706 2.44531 11.6715 2.20697 11.8632C1.97013 12.0536 1.81808 12.2865 1.85526 12.5865L1.85531 12.5869C1.89195 12.8855 2.07059 13.1099 2.28291 13.2759C2.49081 13.4385 2.70206 13.5213 2.74891 13.5386L7.1918 15.0599L7.36189 15.1181L7.41362 15.2903C7.4363 15.3658 7.46365 15.4569 7.49492 15.561C7.87094 16.8129 8.81417 19.9534 9.03564 20.6661L22.8424 3.54325ZM22.8424 3.54325C22.9308 3.61804 23.0262 3.735 23.0828 3.92178C23.1401 4.11074 23.1636 4.39167 23.0736 4.80138L23.0735 4.80135L23.0717 4.81039L19.8005 21.8136C19.749 21.9298 19.5269 22.3654 19.0568 22.5586C18.9064 22.6202 18.7494 22.651 18.5839 22.651C18.374 22.651 18.143 22.6015 17.8886 22.4913L17.8216 22.4512L13.4502 19.042L13.2153 18.8588L12.9969 19.0614L10.2899 21.5722C10.1124 21.7071 9.87211 21.776 9.65035 21.6905L9.63852 21.6859M22.8424 3.54325L9.63852 21.6859M9.63852 21.6859L9.62639 21.6822M9.63852 21.6859L9.62639 21.6822M9.62639 21.6822C9.54305 21.6568 9.43279 21.564 9.31288 21.3528M9.62639 21.6822L9.31288 21.3528M9.31288 21.3528C9.19863 21.1515 9.10889 20.9017 9.03565 20.6662L9.31288 21.3528ZM9.16468 20.1006L9.46304 21.0951L9.82763 20.1229L11.3046 16.1844L19.7607 6.73339L19.2919 6.21855L7.79188 14.7185L7.59395 14.8648L7.66468 15.1006L9.16468 20.1006Z" stroke="white" stroke-width="0.7"/>
</svg>
