<svg width="50" height="50" viewBox="0 0 50 50" fill="none" xmlns="http://www.w3.org/2000/svg">
<g clip-path="url(#clip0)">
<path d="M2.91553 0.463074H47.0845C47.8195 0.463074 48.3495 0.463445 48.7424 0.5071C49.1371 0.55096 49.3385 0.634028 49.4588 0.754291C49.579 0.874555 49.6621 1.07593 49.706 1.47067C49.7496 1.86357 49.75 2.39361 49.75 3.1286V9.34579V15.6588V46.8714C49.75 47.6064 49.7496 48.1364 49.706 48.5293C49.6621 48.924 49.579 49.1254 49.4588 49.2457C49.3385 49.3659 49.1371 49.449 48.7424 49.4929C48.3495 49.5365 47.8195 49.5369 47.0845 49.5369H2.91553C2.18054 49.5369 1.65049 49.5365 1.2576 49.4929C0.862857 49.449 0.661481 49.3659 0.541218 49.2457C0.420954 49.1254 0.337886 48.924 0.294026 48.5293C0.250371 48.1364 0.25 47.6064 0.25 46.8714V21.8749V18.185V3.1286C0.25 2.39361 0.250371 1.86357 0.294026 1.47067C0.337886 1.07593 0.420954 0.874555 0.541218 0.754291C0.661482 0.634028 0.862857 0.55096 1.2576 0.5071C1.65049 0.463445 2.18054 0.463074 2.91553 0.463074Z" stroke="black" stroke-width="0.5"/>
<path d="M42.3048 5.12948C42.3048 3.99758 43.2259 3.07645 44.3578 3.07645C45.4897 3.07645 46.4108 3.99758 46.4108 5.12948C46.4108 6.26139 45.4897 7.18251 44.3578 7.18251C43.2259 7.18251 42.3048 6.26139 42.3048 5.12948Z" stroke="black" stroke-width="0.3"/>
<path d="M36.3348 5.12948C36.3348 3.99758 37.2559 3.07645 38.3878 3.07645C39.5197 3.07645 40.4409 3.99758 40.4409 5.12948C40.4409 6.26139 39.5197 7.18251 38.3878 7.18251C37.2559 7.18251 36.3348 6.26139 36.3348 5.12948Z" stroke="black" stroke-width="0.3"/>
<path d="M30.3646 5.12948C30.3646 3.99758 31.2857 3.07645 32.4176 3.07645C33.5495 3.07645 34.4707 3.99758 34.4707 5.12948C34.4707 6.26139 33.5495 7.18251 32.4176 7.18251C31.2857 7.18251 30.3646 6.26139 30.3646 5.12948Z" stroke="black" stroke-width="0.3"/>
<path d="M6.41689 3.17645H25.2545C26.3312 3.17645 27.2075 4.05281 27.2075 5.12948C27.2075 6.20616 26.3312 7.08251 25.2545 7.08251H6.41689C5.34022 7.08251 4.46387 6.20616 4.46387 5.12948C4.46387 4.05281 5.34022 3.17645 6.41689 3.17645Z" stroke="black" stroke-width="0.5"/>
<path d="M17.6827 26.7863C17.6827 26.3717 18.006 26.0276 18.4414 26.0276C18.8384 26.0276 19.187 26.3732 19.187 26.7863C19.187 27.1877 18.837 27.5452 18.4414 27.5452C18.0073 27.5452 17.6827 27.1892 17.6827 26.7863Z" stroke="#949494" stroke-width="0.3"/>
<path d="M17.6827 41.8348C17.6827 41.4202 18.006 41.0761 18.4414 41.0761C18.8384 41.0761 19.187 41.4217 19.187 41.8348C19.187 42.2361 18.837 42.5937 18.4414 42.5937C18.0073 42.5937 17.6827 42.2376 17.6827 41.8348Z" stroke="#949494" stroke-width="0.3"/>
<path d="M13.5409 21.045V21.045V27.7566C13.5409 28.028 13.3211 28.2478 13.0497 28.2478H6.33813C6.06675 28.2478 5.84692 28.0279 5.84692 27.7566V21.045C5.84692 20.7736 6.06673 20.5538 6.33813 20.5538H13.0497C13.3211 20.5538 13.5409 20.7737 13.5409 21.045Z" stroke="#949494" stroke-width="0.5"/>
<path d="M13.5409 35.8698V35.8698V42.5813C13.5409 42.8527 13.3211 43.0725 13.0497 43.0725H6.33813C6.06673 43.0725 5.84692 42.8527 5.84692 42.5813V35.8698C5.84692 35.5984 6.06673 35.3786 6.33813 35.3786H13.0497C13.3211 35.3786 13.5409 35.5985 13.5409 35.8698Z" stroke="#949494" stroke-width="0.5"/>
<path d="M23.888 27.144C23.256 27.144 22.68 27 22.16 26.712C21.648 26.416 21.244 26.008 20.948 25.488C20.66 24.968 20.516 24.392 20.516 23.76C20.516 22.792 20.836 21.988 21.476 21.348C22.124 20.7 22.928 20.376 23.888 20.376C24.656 20.376 25.32 20.588 25.88 21.012C26.448 21.436 26.832 22 27.032 22.704H26.024C25.832 22.288 25.544 21.96 25.16 21.72C24.784 21.48 24.36 21.36 23.888 21.36C23.224 21.36 22.668 21.592 22.22 22.056C21.78 22.512 21.56 23.08 21.56 23.76C21.56 24.208 21.66 24.616 21.86 24.984C22.06 25.344 22.336 25.632 22.688 25.848C23.048 26.056 23.448 26.16 23.888 26.16C24.36 26.16 24.78 26.04 25.148 25.8C25.524 25.552 25.812 25.212 26.012 24.78H27.044C26.844 25.5 26.456 26.076 25.88 26.508C25.312 26.932 24.648 27.144 23.888 27.144ZM31.3894 27.144C30.7494 27.144 30.1654 27 29.6374 26.712C29.1094 26.416 28.6974 26.012 28.4014 25.5C28.1054 24.98 27.9574 24.4 27.9574 23.76C27.9574 22.784 28.2814 21.976 28.9294 21.336C29.5854 20.696 30.4054 20.376 31.3894 20.376C32.0374 20.376 32.6214 20.524 33.1414 20.82C33.6694 21.108 34.0814 21.512 34.3774 22.032C34.6814 22.544 34.8334 23.12 34.8334 23.76C34.8334 24.728 34.5054 25.536 33.8494 26.184C33.1934 26.824 32.3734 27.144 31.3894 27.144ZM29.6734 25.488C30.1294 25.936 30.7014 26.16 31.3894 26.16C32.0854 26.16 32.6574 25.936 33.1054 25.488C33.5614 25.032 33.7894 24.456 33.7894 23.76C33.7894 23.064 33.5614 22.492 33.1054 22.044C32.6574 21.588 32.0854 21.36 31.3894 21.36C30.7014 21.36 30.1294 21.588 29.6734 22.044C29.2254 22.492 29.0014 23.064 29.0014 23.76C29.0014 24.456 29.2254 25.032 29.6734 25.488ZM43.5356 20.376C43.9916 20.376 44.3916 20.484 44.7356 20.7C45.0796 20.908 45.3436 21.2 45.5276 21.576C45.7196 21.952 45.8156 22.38 45.8156 22.86V27H44.7956V23.172C44.7956 22.788 44.7356 22.456 44.6156 22.176C44.5036 21.896 44.3356 21.684 44.1116 21.54C43.8956 21.388 43.6356 21.312 43.3316 21.312C42.8596 21.312 42.4516 21.516 42.1076 21.924C41.7716 22.324 41.6036 22.82 41.6036 23.412V27H40.6076V23.172C40.6076 22.588 40.4756 22.132 40.2116 21.804C39.9556 21.476 39.5956 21.312 39.1316 21.312C38.8996 21.312 38.6756 21.368 38.4596 21.48C38.2516 21.584 38.0676 21.728 37.9076 21.912C37.7556 22.096 37.6316 22.32 37.5356 22.584C37.4476 22.84 37.4036 23.116 37.4036 23.412V27H36.3836V20.52H37.1156L37.2836 21.408C37.4036 21.248 37.5396 21.104 37.6916 20.976C37.8516 20.848 38.0196 20.74 38.1956 20.652C38.3716 20.564 38.5596 20.496 38.7596 20.448C38.9596 20.4 39.1596 20.376 39.3596 20.376C39.8156 20.376 40.2156 20.488 40.5596 20.712C40.9036 20.928 41.1636 21.228 41.3396 21.612C41.4996 21.356 41.6956 21.136 41.9276 20.952C42.1596 20.768 42.4116 20.628 42.6836 20.532C42.9636 20.428 43.2476 20.376 43.5356 20.376Z" fill="#949494"/>
<path d="M24.272 36.376C25.032 36.376 25.636 36.632 26.084 37.144C26.54 37.656 26.768 38.316 26.768 39.124V43H25.748V39.364C25.748 38.924 25.68 38.552 25.544 38.248C25.416 37.944 25.22 37.712 24.956 37.552C24.7 37.392 24.384 37.312 24.008 37.312C23.456 37.312 22.992 37.52 22.616 37.936C22.24 38.344 22.052 38.852 22.052 39.46V43H21.032V36.52H21.752L21.956 37.54C22.116 37.292 22.312 37.084 22.544 36.916C22.776 36.74 23.04 36.608 23.336 36.52C23.632 36.424 23.944 36.376 24.272 36.376ZM34.7912 39.784C34.7912 39.872 34.7832 39.996 34.7672 40.156H29.2352C29.3152 40.756 29.5632 41.24 29.9792 41.608C30.3952 41.968 30.9072 42.148 31.5152 42.148C31.9632 42.148 32.3592 42.052 32.7032 41.86C33.0552 41.66 33.3352 41.38 33.5432 41.02H34.6112C34.3392 41.692 33.9312 42.216 33.3872 42.592C32.8432 42.96 32.2192 43.144 31.5152 43.144C30.5792 43.144 29.7952 42.82 29.1632 42.172C28.5312 41.524 28.2152 40.72 28.2152 39.76C28.2152 38.792 28.5312 37.988 29.1632 37.348C29.7952 36.7 30.5792 36.376 31.5152 36.376C32.4832 36.376 33.2712 36.704 33.8792 37.36C34.4872 38.016 34.7912 38.824 34.7912 39.784ZM31.5152 37.348C31.1312 37.348 30.7792 37.424 30.4592 37.576C30.1472 37.728 29.8872 37.948 29.6792 38.236C29.4712 38.516 29.3312 38.84 29.2592 39.208H33.7592C33.6872 38.832 33.5472 38.504 33.3392 38.224C33.1312 37.936 32.8712 37.72 32.5592 37.576C32.2472 37.424 31.8992 37.348 31.5152 37.348ZM38.9189 42.052H39.6269V43H38.7869C38.0909 43 37.5429 42.8 37.1429 42.4C36.7429 41.992 36.5429 41.436 36.5429 40.732V37.444H35.4029V37.264L37.4069 35.152H37.5629V36.52H39.5909V37.444H37.5629V40.696C37.5629 40.992 37.6149 41.24 37.7189 41.44C37.8229 41.64 37.9749 41.792 38.1749 41.896C38.3829 42 38.6309 42.052 38.9189 42.052Z" fill="#949494"/>
</g>
<defs>
<clipPath id="clip0">
<rect width="50" height="50" fill="white"/>
</clipPath>
</defs>
</svg>
