<svg width="50" height="50" viewBox="0 0 50 50" fill="none" xmlns="http://www.w3.org/2000/svg">
<path d="M47.0703 12.0664H47.3203V11.8164V4.49219V4.47653C47.3203 4.12363 47.3203 3.83757 47.2959 3.61772C47.2713 3.39647 47.2175 3.18718 47.064 3.03367C46.9105 2.88016 46.7012 2.82634 46.4799 2.80176C46.2601 2.77733 45.974 2.77734 45.6212 2.77734H45.6055H4.39453H4.37883C4.02595 2.77734 3.7399 2.77733 3.52006 2.80176C3.29881 2.82634 3.08953 2.88016 2.93602 3.03367C2.78251 3.18718 2.72869 3.39647 2.7041 3.61772C2.67968 3.83756 2.67968 4.12361 2.67969 4.47649V4.49219V11.8164V12.0664H2.92969H47.0703ZM4.39453 0.347656H45.6055C46.7102 0.347656 47.5176 0.348027 48.1185 0.414792C48.7212 0.481761 49.0612 0.611048 49.2739 0.823749C49.4866 1.03645 49.6159 1.37648 49.6829 1.97921C49.7496 2.58009 49.75 3.38745 49.75 4.49219V45.5078C49.75 46.6126 49.7496 47.4199 49.6829 48.0208C49.6159 48.6235 49.4866 48.9636 49.2739 49.1763C49.0612 49.389 48.7212 49.5182 48.1185 49.5852C47.5176 49.652 46.7102 49.6523 45.6055 49.6523H4.39453C3.28979 49.6523 2.48243 49.652 1.88155 49.5852C1.27883 49.5182 0.938795 49.389 0.726093 49.1763C0.513392 48.9636 0.384105 48.6235 0.317135 48.0208C0.250371 47.4199 0.25 46.6126 0.25 45.5078V4.49219C0.25 3.38745 0.250371 2.58009 0.317135 1.97921C0.384105 1.37648 0.513392 1.03645 0.726093 0.823749C0.938795 0.611048 1.27883 0.481761 1.88155 0.414792C2.48243 0.348027 3.28979 0.347656 4.39453 0.347656Z" stroke="black" stroke-width="0.5"/>
<path d="M29.0481 20.0284L20 41" stroke="#C4C4C4" stroke-width="0.5"/>
<path d="M15.2959 23.8561L7.97167 29.7155C7.23934 30.3012 7.23886 31.4171 7.97167 32.0032L15.2959 37.8626" stroke="#C4C4C4" stroke-width="0.5"/>
<path d="M34.704 23.8561L42.0282 29.7155C42.761 30.3016 42.7605 31.4175 42.0282 32.0031L34.704 37.8625" stroke="#C4C4C4" stroke-width="0.5"/>
<path d="M8.73672 7.42188C8.73672 8.14804 8.14804 8.73672 7.42188 8.73672C6.69571 8.73672 6.10703 8.14804 6.10703 7.42188C6.10703 6.69571 6.69571 6.10703 7.42188 6.10703C8.14804 6.10703 8.73672 6.69571 8.73672 7.42188Z" stroke="black" stroke-width="0.3"/>
<path d="M14.5961 7.42188C14.5961 8.14804 14.0074 8.73672 13.2812 8.73672C12.5551 8.73672 11.9664 8.14804 11.9664 7.42188C11.9664 6.69571 12.5551 6.10703 13.2812 6.10703C14.0074 6.10703 14.5961 6.69571 14.5961 7.42188Z" stroke="black" stroke-width="0.3"/>
<path d="M20.4555 7.42188C20.4555 8.14804 19.8668 8.73672 19.1406 8.73672C18.4145 8.73672 17.8258 8.14804 17.8258 7.42188C17.8258 6.69571 18.4145 6.10703 19.1406 6.10703C19.8668 6.10703 20.4555 6.69571 20.4555 7.42188Z" stroke="black" stroke-width="0.3"/>
<path d="M42.5781 8.73672H33.7891C33.0629 8.73672 32.4742 8.14802 32.4742 7.42188C32.4742 6.69573 33.0629 6.10703 33.7891 6.10703H42.5781C43.3043 6.10703 43.893 6.69573 43.893 7.42188C43.893 8.14802 43.3043 8.73672 42.5781 8.73672Z" stroke="black" stroke-width="0.3"/>
</svg>
