<svg width="50" height="50" viewBox="0 0 50 50" fill="none" xmlns="http://www.w3.org/2000/svg">
<path d="M0.976559 1.25085H49.0234C49.4247 1.25085 49.75 1.57621 49.75 1.97741V12.0222C49.75 12.4234 49.4247 12.7488 49.0234 12.7488H0.976559C0.575293 12.7488 0.25 12.4234 0.25 12.0222V1.97741C0.25 1.57621 0.575293 1.25085 0.976559 1.25085Z" stroke="black" stroke-width="0.5"/>
<path d="M43.5485 9.18832L43.5485 9.18831L43.5509 9.18707L43.5624 9.18097C43.5729 9.17532 43.589 9.16653 43.6097 9.15473C43.6512 9.13111 43.7112 9.09554 43.7828 9.049C43.9266 8.95544 44.1133 8.81992 44.2897 8.65057C44.5169 8.43249 44.7401 8.07493 44.8199 7.91714C45.0199 7.52158 45.1266 7.0819 45.1266 6.62488C45.1266 5.85788 44.8284 5.13788 44.2861 4.59552C44.286 4.59552 44.286 4.59551 44.286 4.59551M43.5485 9.18832L43.6619 9.4111C43.2315 9.62868 42.7533 9.74469 42.2569 9.74469C41.4236 9.74469 40.6401 9.42018 40.0507 8.83092C39.4616 8.24177 39.137 7.45818 39.137 6.62488C39.137 5.79158 39.4615 5.00799 40.0507 4.41873C41.2672 3.20233 43.2464 3.20243 44.4628 4.41873L44.286 4.59551M43.5485 9.18832C43.1531 9.38806 42.7137 9.49469 42.2569 9.49469C41.4899 9.49469 40.77 9.19652 40.2275 8.65415C39.6852 8.11187 39.387 7.39187 39.387 6.62488C39.387 5.85788 39.6851 5.13788 40.2275 4.59552C41.3464 3.47675 43.1673 3.47683 44.286 4.59551M43.5485 9.18832L44.286 4.59551" stroke="black" stroke-width="0.5"/>
<path d="M33.0791 8.57721L33.2262 8.60667C33.2156 8.65969 33.2105 8.71336 33.2105 8.76861C33.2105 8.82262 33.2155 8.87624 33.2261 8.9294C33.237 8.98279 33.2528 9.03485 33.2732 9.08378L33.2733 9.08395C33.2938 9.13322 33.3193 9.18121 33.3492 9.22699C33.3813 9.27366 33.4151 9.31609 33.4512 9.35231C33.4909 9.39113 33.533 9.42561 33.5771 9.45442L33.5783 9.45522L33.5783 9.45523C33.6228 9.4849 33.6708 9.51056 33.7204 9.53125C33.7709 9.55192 33.8232 9.56771 33.8756 9.57854C33.9285 9.5891 33.9829 9.5941 34.0371 9.5941C34.0914 9.5941 34.1458 9.58899 34.1979 9.5785C34.2511 9.56778 34.3032 9.55195 34.3525 9.53142C34.4029 9.51041 34.4518 9.48459 34.4959 9.45523L34.4971 9.45442L34.4971 9.45442C34.5415 9.42545 34.5833 9.39103 34.6215 9.35287L34.7275 9.45894M33.0791 8.57721L33.2261 8.60702C33.237 8.55353 33.2527 8.50148 33.2732 8.45228C33.2941 8.40215 33.3198 8.35344 33.3489 8.30958C33.381 8.26277 33.4149 8.22025 33.4512 8.18384C33.4908 8.14511 33.5329 8.11065 33.5773 8.08162L33.5773 8.08162L33.5783 8.08092C33.623 8.05116 33.671 8.02545 33.7208 8.00473C33.7699 7.98425 33.8221 7.96847 33.8756 7.95761L33.8457 7.81061M33.0791 8.57721C33.0664 8.64058 33.0605 8.70416 33.0605 8.76861C33.0605 8.83199 33.0664 8.89556 33.0791 8.95904V8.57721ZM34.7275 9.45894L34.6212 9.35313C34.7752 9.19844 34.8637 8.98539 34.8637 8.76861C34.8637 8.71487 34.858 8.66119 34.8471 8.60667L34.9941 8.57721M34.7275 9.45894C34.6826 9.50386 34.6328 9.54498 34.5791 9.58003L34.7275 9.45894ZM34.9941 8.57721L34.8471 8.60702C34.8363 8.55348 34.8205 8.50136 34.8 8.45236L34.8 8.4522C34.779 8.40181 34.7532 8.35295 34.7238 8.30885C34.6937 8.26372 34.6589 8.2207 34.6215 8.18327C34.5834 8.14521 34.5415 8.11081 34.4969 8.08162L34.4959 8.08093L34.4959 8.08092C34.4513 8.0512 34.4035 8.02564 34.3533 8.00507L34.3525 8.00474L34.3525 8.00473C34.3033 7.98425 34.2511 7.96847 34.1977 7.95761L34.2275 7.81061M34.9941 8.57721C34.9814 8.51461 34.9629 8.45309 34.9385 8.39459C34.9141 8.3359 34.8838 8.27838 34.8486 8.22565C34.8135 8.17291 34.7725 8.12213 34.7275 8.07721C34.6826 8.03229 34.6328 7.99127 34.5791 7.95611C34.5264 7.92096 34.4697 7.89069 34.4102 7.86627C34.3516 7.84186 34.29 7.8233 34.2275 7.81061M34.9941 8.57721L33.8457 7.81061M34.2275 7.81061L34.1979 7.95765C34.0915 7.9362 33.9818 7.9362 33.8753 7.95765L33.8457 7.81061M34.2275 7.81061C34.1016 7.78522 33.9717 7.78522 33.8457 7.81061" stroke="black" stroke-width="0.3"/>
<path d="M10.0383 9.74469H30.3344" stroke="black" stroke-width="0.5"/>
<path d="M44 9L46 11" stroke="black" stroke-width="0.5"/>
<path d="M1.09179 14.6409H30.744C31.1453 14.6409 31.4706 14.9663 31.4706 15.3675V34.6251C31.4706 35.0263 31.1453 35.3517 30.744 35.3517H1.09179C0.690511 35.3517 0.365234 35.0264 0.365234 34.6251V15.3675C0.365234 14.9663 0.690527 14.6409 1.09179 14.6409Z" stroke="black" stroke-width="0.5"/>
<path d="M10.2397 20.9178C10.2397 19.1521 11.6765 17.7153 13.4422 17.7153C15.2078 17.7153 16.6446 19.1521 16.6446 20.9178C16.6446 22.6834 15.2078 24.1202 13.4422 24.1202C11.6766 24.1202 10.2397 22.6834 10.2397 20.9178Z" stroke="black" stroke-width="0.5"/>
<path d="M34.0146 14.6409H49.0234C49.4246 14.6409 49.7499 14.9663 49.7499 15.3675V34.6251C49.7499 35.0263 49.4246 35.3517 49.0234 35.3517H34.0146C33.6134 35.3517 33.2881 35.0263 33.2881 34.6251V15.3675C33.2881 14.9663 33.6134 14.6409 34.0146 14.6409Z" stroke="#949494" stroke-width="0.5"/>
<path d="M37.2649 19.9057H45.7731" stroke="#949494" stroke-width="0.5"/>
<path d="M37.2649 23.825H45.7731" stroke="#949494" stroke-width="0.5"/>
<path d="M37.2649 27.7443H45.7731" stroke="#949494" stroke-width="0.5"/>
<path d="M36.3076 30.8778L36.4546 30.848C36.4655 30.9015 36.4813 30.9537 36.5017 31.0028L36.5018 31.0029C36.5224 31.0524 36.5481 31.1007 36.5782 31.1467C36.6083 31.1917 36.643 31.2345 36.6803 31.2718C36.7176 31.3091 36.7604 31.3438 36.8053 31.3738C36.8515 31.404 36.8998 31.4297 36.9493 31.4504C36.9984 31.4708 37.0505 31.4866 37.1039 31.4974C37.1585 31.5083 37.212 31.514 37.2656 31.514C37.4825 31.514 37.6953 31.4255 37.849 31.2717L37.849 31.2717C37.8862 31.2346 37.9211 31.1917 37.9525 31.1459C37.9824 31.1 38.008 31.0519 38.0285 31.0027C38.049 30.9535 38.0648 30.9015 38.0756 30.848L38.2227 30.8778C38.2353 30.8144 38.2412 30.7508 38.2412 30.6864C38.2412 30.623 38.2353 30.5594 38.2227 30.496L38.0756 30.5259C38.0648 30.4723 38.049 30.4202 38.0286 30.3712L38.0285 30.371C38.008 30.3218 37.9824 30.2738 37.9525 30.228C37.9203 30.1811 37.8867 30.139 37.8502 30.1033L37.849 30.1021L37.849 30.1021C37.6575 29.9106 37.3714 29.8221 37.1041 29.8764L37.1041 29.8764C37.0506 29.8873 36.9985 29.9031 36.9493 29.9236C36.8998 29.9442 36.8515 29.9699 36.8053 30.0001C36.7604 30.0301 36.7176 30.0648 36.6803 30.1021C36.6429 30.1395 36.6082 30.1822 36.5783 30.2271C36.5481 30.2733 36.5224 30.3216 36.5017 30.3711C36.4812 30.4203 36.4655 30.4724 36.4546 30.5259L36.3076 30.496M36.3076 30.8778C36.2949 30.8144 36.2881 30.7508 36.2881 30.6864C36.2881 30.623 36.2949 30.5594 36.3076 30.496M36.3076 30.8778L36.4547 30.8483C36.4438 30.7938 36.4381 30.7401 36.4381 30.6864C36.4381 30.6338 36.4438 30.5801 36.4547 30.5255L36.3076 30.496M36.3076 30.8778C36.3203 30.9404 36.3389 31.0019 36.3633 31.0605C36.3877 31.1192 36.418 31.1758 36.4531 31.2294L36.3076 30.496" stroke="#949494" stroke-width="0.3"/>
<path d="M40.967 31.6636H45.7731" stroke="#949494" stroke-width="0.5"/>
<path d="M1.09179 37.2373H16.1005C16.5018 37.2373 16.8271 37.5627 16.8271 37.9639V48.0226C16.8271 48.4238 16.5018 48.7492 16.1005 48.7492H1.09179C0.690527 48.7492 0.365234 48.4238 0.365234 48.0226V37.9639C0.365234 37.5627 0.690527 37.2373 1.09179 37.2373Z" stroke="#949494" stroke-width="0.5"/>
<path d="M19.5046 37.2373H49.0235C49.4247 37.2373 49.75 37.5627 49.75 37.9639V48.0226C49.75 48.4238 49.4247 48.7492 49.0235 48.7492H19.5046C19.1034 48.7492 18.7781 48.4238 18.7781 48.0226V37.9639C18.7781 37.5627 19.1034 37.2373 19.5046 37.2373Z" stroke="black" stroke-width="0.5"/>
<path d="M24.7352 42.677L24.7352 42.677C24.7147 42.6269 24.6891 42.5791 24.6594 42.5345L24.6586 42.5333L24.6586 42.5333C24.6294 42.4887 24.5951 42.4469 24.557 42.4088C24.5189 42.3707 24.4771 42.3363 24.4325 42.3071L24.4316 42.3066L24.4316 42.3066C24.3868 42.2768 24.3389 42.2511 24.2888 42.2306L24.288 42.2303L24.288 42.2303C24.2377 42.2093 24.1857 42.1929 24.1339 42.1823C24.0273 42.1617 23.9173 42.1617 23.8107 42.1822C23.7598 42.1928 23.7077 42.2092 23.6559 42.2304C23.6065 42.2511 23.5584 42.2768 23.5137 42.3066L23.5128 42.3071L23.5128 42.3071C23.4682 42.3363 23.4264 42.3707 23.3883 42.4088C23.3503 42.4468 23.3155 42.489 23.2848 42.5347C23.2551 42.5793 23.2296 42.6269 23.2091 42.677L23.2088 42.6777L23.2088 42.6777C23.1883 42.7271 23.1725 42.7792 23.1616 42.8326C23.1511 42.8844 23.1461 42.9387 23.1461 42.9932C23.1461 43.0475 23.1511 43.1019 23.1616 43.1537L24.7352 42.677ZM24.7352 42.677L24.7356 42.6778M24.7352 42.677L24.7356 42.6778M24.7356 42.6778C24.756 42.7269 24.7718 42.7792 24.7827 42.8326C24.7935 42.8857 24.7992 42.9403 24.7992 42.9932C24.7992 43.0459 24.7935 43.1004 24.7827 43.1537L24.7356 42.6778ZM24.2888 43.7557L24.2888 43.7557C24.3403 43.7346 24.3873 43.7101 24.4299 43.6809L24.4326 43.679L24.4327 43.6791C24.4771 43.65 24.5189 43.6157 24.5569 43.5776L24.557 43.5775C24.5951 43.5395 24.6295 43.4976 24.6587 43.453L24.6594 43.4519L24.6594 43.4519C24.689 43.4074 24.7147 43.3595 24.7354 43.3099L24.2888 43.7557ZM24.2888 43.7557L24.288 43.7561M24.2888 43.7557L24.288 43.7561M24.288 43.7561C24.2375 43.7771 24.1853 43.7936 24.1332 43.8042L24.1631 43.9512L24.1334 43.8041C24.0814 43.8146 24.0269 43.8197 23.9727 43.8197C23.7557 43.8197 23.5419 43.731 23.3883 43.5774C23.3503 43.5395 23.3155 43.4972 23.2848 43.4516C23.2552 43.4071 23.2296 43.3593 23.2089 43.3098M24.288 43.7561L23.2089 43.3098M23.2089 43.3098C23.1882 43.2592 23.1725 43.2069 23.1616 43.1537L23.2089 43.3098Z" stroke="black" stroke-width="0.3"/>
<path d="M27.6746 42.9697H44.0739" stroke="black" stroke-width="0.5"/>
</svg>
