<svg width="50" height="50" viewBox="0 0 50 50" fill="none" xmlns="http://www.w3.org/2000/svg">
<path d="M0 37.9032L5.64516 35.8871V9.67742C5.64516 9.67742 5.64516 5.64516 11.2903 5.64516H39.9194C39.9194 5.64516 44.0879 5.64516 44.3548 9.67742C44.6218 13.7097 44.3548 39.5161 44.3548 39.5161C44.3548 39.5161 44.3548 44.3548 39.9194 44.3548H12.9032L11.2903 50H42.7419C49.5968 50 49.5968 44.3548 49.5968 44.3548V5.64516C49.5968 -2.4611e-05 42.7419 0 42.7419 0H5.64516C5.64516 0 0 0 0 5.64516V37.9032Z" fill="#C4C4C4"/>
<path d="M8.46774 12.0968V33.871L21.7742 21.371L15.3226 15.3226H34.6774V33.871L28.2258 28.2258L15.3226 40.8825H38.3065C41.9355 40.8825 41.9355 37.9032 41.9355 37.9032V12.0968C41.9355 8.46774 38.3065 8.46774 38.3065 8.46774H12.9032C8.46774 8.46774 8.46774 12.0968 8.46774 12.0968Z" fill="#C4C4C4"/>
</svg>
